<?xml version="1.0" encoding="utf-8"?>
<!-- Generator: Adobe Illustrator 17.0.0, SVG Export Plug-In . SVG Version: 6.00 Build 0)  -->
<!DOCTYPE svg PUBLIC "-//W3C//DTD SVG 1.1//EN" "http://www.w3.org/Graphics/SVG/1.1/DTD/svg11.dtd">
<svg version="1.1" id="Layer_1" xmlns="http://www.w3.org/2000/svg" xmlns:xlink="http://www.w3.org/1999/xlink" x="0px" y="0px"
	 width="504px" height="165.6px" viewBox="0 0 504 165.6" enable-background="new 0 0 504 165.6" xml:space="preserve" class="logo">
<g>
	<path d="M49.945,82.834c0.182,1.681,0.439,3.358,0.521,5.044c0.065,1.328-0.12,2.666-0.132,4c-0.015,1.612,1.023,3.04,2.542,3.579
		c1.941,0.687,3.841,1.6,5.841,1.981c2.563,0.488,5.168,1.165,7.841,0.233c1.416-0.494,3.038-0.438,4.413-1.004
		c3.552-1.464,5.244-4.486,6.166-8.038c0.312-1.203,0.669-2.396,0.943-3.607c0.645-2.852,0.613-5.732,0.551-8.649
		c-0.057-2.715-0.752-5.22-1.482-7.765c-0.535-1.862-0.901-3.774-1.47-5.624c-0.671-2.184-1.371-4.37-2.252-6.474
		c-1.214-2.899-2.591-5.731-3.941-8.571c-0.413-0.87-0.93-1.696-1.458-2.504c-1.066-1.627-2.137-3.252-3.269-4.833
		c-2.104-2.935-4.183-5.892-6.417-8.727c-0.897-1.138-2.096-2.09-3.299-2.924c-1.597-1.107-3.031-2.332-4.382-3.746
		c-2.07-2.168-4.648-3.639-7.61-4.342c-1.253-0.297-1.679-1.066-1.276-2.33c0.742-2.328,2.874-3.524,5.147-1.83
		c3.411,2.543,6.984,4.87,10.392,7.418c1.138,0.851,1.917,2.165,2.973,3.146c1.383,1.285,2.963,2.364,4.299,3.691
		c1.162,1.154,2.156,2.492,3.128,3.819c1.814,2.478,3.592,4.984,5.319,7.522c1.264,1.858,2.493,3.747,3.609,5.696
		c1.092,1.907,2.097,3.874,2.994,5.88c0.624,1.394,0.952,2.918,1.501,4.349c1.02,2.66,2.395,5.222,3.09,7.96
		c0.874,3.443,1.755,6.925,1.777,10.547c0.013,2.118,0.338,4.231,0.438,6.351c0.176,3.715-0.792,7.173-2.504,10.444
		c-0.608,1.162-1.132,2.38-1.853,3.468c-1.671,2.522-4.07,4.141-6.885,5.159c-2.117,0.765-4.206,1.681-6.387,2.181
		c-3.957,0.906-7.961,1.394-12.036,0.492c-1.674-0.37-3.452-0.253-5.147-0.558c-1.56-0.281-3.076-0.817-4.604-1.268
		c-0.893-0.264-1.607-0.042-2.441,0.397c-1.701,0.895-3.478,2.052-5.305,2.223c-4.263,0.398-8.487-0.075-12.138-2.749
		c-1.7-1.245-2.755-2.988-3.832-4.727c-1.117-1.804-1.607-3.824-2.257-5.819c-0.958-2.939-1.637-5.87-1.562-8.946
		c0.04-1.646,0.29-3.286,0.438-4.929c0.021-0.237,0-0.477,0.001-0.716c0.006-1.042-0.145-2.116,0.051-3.121
		c0.46-2.364,0.817-4.804,1.713-7.011c1.08-2.659,2.251-5.407,5.197-6.76c1.458-0.67,2.535-0.212,3.78,0.757
		c1.16,0.904,1.533,2.624,1.017,3.844c-0.967,2.286-2.165,4.504-2.852,6.871c-0.68,2.34-0.972,4.817-1.2,7.255
		c-0.189,2.024-0.206,4.097,0.002,6.118c0.29,2.821,0.68,5.712,2.396,8.079c1.063,1.467,2.356,2.882,3.833,3.905
		c1.955,1.355,5.124,1.716,6.128-1.327c0.274-0.832-0.103-1.944-0.366-2.875c-0.868-3.064-1.495-6.145-1.522-9.354
		c-0.017-1.997,0.64-3.755,1.442-5.498c0.401-0.87,0.929-1.682,1.33-2.552c0.895-1.941,2.922-1.9,4.514-2.584
		c0.918-0.395,3.09,0.668,3.509,1.835C49.774,77.751,50.186,80.24,49.945,82.834z"/>
	<path d="M419.901,95.826c-0.153,1.407-0.274,2.609-0.416,3.808c-0.201,1.704-0.508,3.362-1.413,4.882
		c-1.273,2.137-5.737,3.796-8.162,2.892c-1.402-0.523-2.851-0.912-3.376-2.562c-0.046-0.144-0.186-0.28-0.18-0.416
		c0.11-2.443,0.139-4.895,0.392-7.323c0.193-1.854,0.639-3.686,1.041-5.513c0.383-1.741,0.898-3.454,1.268-5.197
		c0.219-1.032,0.37-2.099,0.375-3.15c0.017-3.781,2.374-5.335,5.191-5.68c1.806-0.222,3.495,0.638,4.752,1.916
		c1.571,1.599,3.171,3.255,4.34,5.145c1.671,2.702,4.045,4.732,6.068,7.089c1.021,1.189,2.223,2.222,3.344,3.326
		c0.096-0.054,0.192-0.108,0.288-0.163c-0.485-1.933-0.928-3.878-1.467-5.796c-0.641-2.277-1.61-4.465-1.459-6.923
		c0.149-2.419-0.096-4.897,0.354-7.249c0.289-1.514,1.307-3.044,2.38-4.218c1.536-1.682,5.365-0.98,6.134,0.952
		c0.203,0.51,0.209,1.152,0.134,1.71c-0.244,1.813-0.951,3.654-0.773,5.412c0.286,2.83,0.375,5.727,1.712,8.42
		c1.422,2.864,2.767,5.82,3.656,8.878c0.765,2.631,1.583,5.575-0.317,8.1c-0.757,1.007-2.087,1.672-3.275,2.247
		c-2.464,1.194-4.861,0.824-7.302-0.39c-2.81-1.397-5.362-3.083-7.586-5.293c-1.381-1.371-2.813-2.692-4.25-4.005
		C421.013,96.417,420.563,96.23,419.901,95.826z"/>
	<path d="M251.65,107.522c-3.738-0.34-7.093-0.787-10.134-2.304c-2.393-1.194-4.718-2.587-6.88-4.159
		c-1.851-1.347-2.902-3.419-3.882-5.493c-1.736-3.676-2.321-7.581-2.403-11.577c-0.078-3.84-0.041-7.683,0.005-11.525
		c0.009-0.725,0.375-1.439,0.439-2.171c0.134-1.54,0.109-3.096,0.271-4.632c0.348-3.31,0.772-6.611,1.166-9.916
		c0.324-2.725,0.638-5.451,0.98-8.173c0.122-0.968,0.266-1.938,0.484-2.888c0.609-2.65,1.162-5.319,1.93-7.923
		c0.638-2.162,1.804-4.048,4.254-4.551c2.171-0.446,3.779-0.278,4.409,1.513c0.528,1.5,0.318,3.086-0.03,4.595
		c-0.68,2.952-1.512,5.868-2.199,8.818c-0.486,2.087-0.89,4.198-1.239,6.313c-0.438,2.659-0.803,5.331-1.16,8.002
		c-0.342,2.563-0.643,5.132-0.942,7.701c-0.114,0.977-0.223,1.96-0.249,2.942c-0.102,3.851-0.418,7.719-0.175,11.55
		c0.217,3.421,0.655,6.885,2.763,9.885c1.748,2.487,3.837,4.545,6.757,5.351c3.07,0.847,6.17,1.486,9.481,0.746
		c3.235-0.723,6.591-0.916,9.901-1.277c0.64-0.07,1.332,0.09,1.965,0.27c1.376,0.391,1.976,1.863,1.381,3.215
		c-0.782,1.777-2.309,2.7-4.043,3.156c-2.594,0.682-5.239,1.173-7.873,1.691C254.866,107.028,253.084,107.283,251.65,107.522z"/>
	<path d="M132.975,77.049c1.02-0.582,1.998-1.082,2.916-1.676c1.674-1.083,3.597-1.149,5.443-1.16
		c2.398-0.015,4.645-0.259,6.859-1.31c1.575-0.748,3.261,0.172,4.901,0.309c2.238,0.187,4.51,0.26,6.747,0.099
		c2.013-0.144,3.871-0.265,5.55,1.176c1.744,1.497,1.502,4.541-0.426,5.777c-2.227,1.428-4.669,1.862-7.22,2.032
		c-0.662,0.044-1.327,0.14-1.976,0.279c-0.841,0.179-1.137,0.9-1.092,1.599c0.174,2.664,0.24,5.362,0.739,7.972
		c0.541,2.832,0.319,5.753,1.331,8.541c0.683,1.882,0.086,3.006-1.684,3.991c-1.475,0.821-3.043,1.731-4.837,1.025
		c-0.563-0.222-1.082-0.726-1.457-1.224c-1.271-1.692-1.414-3.784-1.739-5.757c-0.471-2.857-0.664-5.759-1.003-8.638
		c-0.21-1.788-0.451-3.573-0.714-5.353c-0.252-1.705-1.129-2.064-2.832-1.917c-2.479,0.214-4.942,1.172-7.461,0.415
		c-0.845-0.254-1.63-0.707-2.527-1.106c-0.29,0.728-0.721,1.398-0.408,2.422c0.314,1.028,0.122,2.199,0.301,3.283
		c0.598,3.609,1.292,7.203,1.894,10.812c0.446,2.671-1.477,5.179-4.254,5.658c-2.665,0.459-4.598-0.991-5.059-3.683
		c-0.499-2.912-1.105-5.806-1.629-8.714c-0.153-0.849-0.237-1.718-0.263-2.581c-0.103-3.332-0.187-6.665-0.244-9.998
		c-0.047-2.805,1.336-4.798,3.739-6.069c2.163-1.144,4.16-0.468,5.344,1.686C132.283,75.608,132.603,76.304,132.975,77.049z"/>
	<path d="M471.039,90.505c-0.056-0.869-0.001-1.763-0.189-2.603c-0.667-2.981-0.475-5.964-0.174-8.956
		c0.087-0.861,0.133-1.728,0.266-2.582c0.323-2.08,0.595-4.176,1.073-6.222c0.23-0.987,0.91-1.809,2.099-1.995
		c1.15-0.18,2.275-0.541,3.429-0.665c1.978-0.213,2.576,1.371,2.36,3.039c-0.376,2.898-1.167,5.774-1.234,8.672
		c-0.062,2.669,0.372,5.408,0.996,8.019c0.817,3.419,2.164,6.71,3.025,10.121c0.436,1.728,0.428,3.603,0.37,5.403
		c-0.022,0.668-0.659,1.414-1.191,1.951c-2.242,2.264-6.016,2.723-8.455,0.949c-1.719-1.251-3.328-2.667-4.903-4.1
		c-1.345-1.223-2.555-2.594-3.858-3.866c-1.247-1.217-2.525-2.405-3.813-3.579c-1.025-0.933-1.847-0.686-2.114,0.59
		c-0.326,1.559-0.581,3.141-1.029,4.664c-0.246,0.835-0.08,1.409,0.386,2.067c1.371,1.936,0.818,4.769-1.499,5.449
		c-1.62,0.475-3.424,0.549-5.125,0.45c-1.296-0.075-2.94-2.751-3.018-4.285c-0.137-2.707,0.405-5.273,1.29-7.83
		c0.697-2.013,1.062-4.14,1.589-6.212c0.124-0.487,0.307-0.959,0.461-1.438c0.487-1.515,0.915-2.904,0.103-4.591
		c-0.749-1.557,0.437-3.742,2.138-4.482c2.609-1.135,5.755-1.255,8.004,1.266c0.232,0.261,0.462,0.541,0.617,0.851
		c1.767,3.516,4.541,6.263,7.035,9.223c0.284,0.337,0.707,0.557,1.065,0.831C470.841,90.599,470.94,90.552,471.039,90.505z"/>
	<path d="M303.309,103.486c0.007,3.05-1.321,3.577-3.449,4.126c-2.655,0.685-4.382-0.391-4.991-3.116
		c-0.441-1.972-0.581-4.011-1.009-5.987c-0.275-1.271-0.795-2.495-1.285-3.708c-0.102-0.254-0.554-0.528-0.839-0.521
		c-1.584,0.037-3.144-0.328-4.765,0.158c-1.592,0.477-3.305,0.594-4.977,0.744c-0.843,0.075-1.228,0.338-1.401,1.192
		c-0.292,1.438,0.145,2.467,1.542,2.907c1.453,0.458,2.359,1.486,2.351,2.887c-0.008,1.525-0.33,3.055-1.919,4.011
		c-1.928,1.16-3.885,1.559-6.054,0.931c-2.205-0.638-3.497-2.197-4.13-4.283c-0.966-3.183-1.184-6.403-0.229-9.663
		c0.479-1.636,0.687-3.352,1.178-4.983c0.833-2.771,1.806-5.499,2.693-8.254c0.404-1.255,0.786-2.52,1.1-3.799
		c0.326-1.327,0.852-2.493,2.092-3.199c1.905-1.084,3.833-2.107,6.114-2.115c2.359-0.008,4.291,1.079,6.075,2.45
		c2.785,2.139,4.575,5.064,6.033,8.175c1.015,2.167,1.867,4.419,2.662,6.678c0.768,2.182,1.471,4.399,2.012,6.646
		c0.374,1.552,0.411,3.183,0.621,4.776C302.911,100.855,303.117,102.169,303.309,103.486z M284.863,85.886
		c1.034-0.088,1.984-0.118,2.91-0.283c0.227-0.04,0.599-0.644,0.524-0.779c-0.572-1.037-1.125-2.123-1.907-2.994
		c-0.788-0.877-1.333-0.7-1.885,0.368c-0.322,0.622-0.639,1.258-0.855,1.921C283.233,85.401,283.62,85.889,284.863,85.886z"/>
	<path d="M177.062,95.246c0.911,0.385,1.79,0.954,2.738,1.117c2.123,0.363,4.284,0.742,6.422,0.703
		c1.963-0.036,3.905-0.707,5.875-0.928c2.202-0.246,4.425-0.383,6.641-0.406c1.233-0.012,1.948,0.862,2.086,2.09
		c0.251,2.232-0.918,3.955-3.366,4.77c-0.875,0.291-1.826,0.468-2.747,0.483c-1.472,0.024-2.812,0.334-4.226,0.8
		c-1.826,0.601-3.856,0.553-5.772,0.919c-3.257,0.622-6.499,0.178-9.589-0.592c-3.1-0.772-6.22-2.087-7.291-5.636
		c-0.72-2.385-1.56-4.681-0.879-7.395c0.595-2.373,1.129-4.734,2.051-7.008c0.491-1.211,0.685-2.56,1.279-3.708
		c1.667-3.218,4.681-4.519,7.958-5.624c3.902-1.316,8.028-1.503,11.932-2.739c1.255-0.397,2.59-0.549,3.892-0.793
		c1.572-0.294,2.931,0.386,4.266,1.039c0.687,0.336,0.822,1.772,0.309,2.426c-0.195,0.249-0.52,0.428-0.638,0.702
		c-1.07,2.488-3.229,3.506-5.624,4.178c-2.95,0.827-5.939,1.525-8.861,2.437c-1.359,0.424-2.614,1.199-3.886,1.871
		c-0.254,0.134-0.371,0.527-0.551,0.801c0.294,0.138,0.601,0.416,0.882,0.393c1.758-0.147,3.509-0.372,5.264-0.551
		c2.887-0.295,5.773-0.751,8.665-0.802c2.125-0.037,4.016,1.092,3.486,3.323c-0.234,0.984-1.323,1.842-2.172,2.589
		c-2.092,1.842-4.901,1.623-7.378,2.349c-2.342,0.687-4.766,1.096-7.155,1.625c-0.87,0.193-1.752,0.345-2.61,0.58
		c-0.347,0.095-0.647,0.364-0.968,0.553C177.083,94.956,177.072,95.101,177.062,95.246z"/>
	<path d="M117.319,75.682c0.394,3.595,0.929,7.181,1.136,10.786c0.158,2.762-0.083,5.548-0.176,8.322
		c-0.049,1.46-0.234,2.919-0.229,4.378c0.006,1.981-0.789,3.392-2.627,4.164c-1.048,0.44-1.986,1.171-3.292,0.773
		c-1.918-0.585-2.832-1.418-2.906-3.401c-0.059-1.567,0.171-3.146,0.3-4.718c0.106-1.291,0.32-2.577,0.362-3.869
		c0.04-1.22-0.488-1.614-1.713-1.45c-1.705,0.228-3.418,0.419-5.106,0.738c-0.707,0.133-1.479,0.414-2.012,0.872
		c-0.915,0.786-0.297,1.849-0.054,2.712c0.188,0.668,0.779,1.253,1.274,1.798c1.399,1.54,1.705,4.085,0.303,5.067
		c-1.868,1.31-3.906,2.66-6.394,1.708c-1.954-0.748-3.237-2.356-3.685-4.285c-0.634-2.727-0.964-5.54-1.225-8.335
		c-0.231-2.481-0.361-4.998-0.222-7.481c0.133-2.377-0.297-4.892,1.298-7.064c0.422-0.574,0.337-1.5,0.565-2.24
		c0.434-1.41,1.815-2.581,3.014-2.628c1.293-0.05,2.874,1.142,3.48,2.481c0.514,1.136,0.75,2.208,0.493,3.499
		c-0.244,1.227-0.103,2.543-0.038,3.816c0.059,1.155,0.674,1.708,1.821,1.679c1.838-0.047,3.68-0.094,5.508-0.266
		c0.883-0.083,1.598-0.462,1.539-1.665c-0.151-3.051-0.08-6.115-0.308-9.157c-0.111-1.483-0.264-2.768,0.684-4.127
		c1.137-1.629,3.174-2.288,4.898-1.993c1.245,0.213,2.857,2.184,3.055,3.747c0.257,2.027,0.453,4.061,0.675,6.092
		C117.598,75.652,117.459,75.667,117.319,75.682z"/>
	<path d="M396.377,38.951c-0.58,1.923-1.208,3.747-1.672,5.613c-0.441,1.776-0.904,3.583-1.022,5.398
		c-0.418,6.466-1.172,12.908-1.078,19.416c0.031,2.136,0.001,4.178,0.472,6.3c0.396,1.786-0.01,3.735,0.117,5.599
		c0.156,2.304,0.512,4.594,0.751,6.893c0.167,1.603,0.306,3.209,0.414,4.817c0.111,1.656,0.08,3.327,0.285,4.969
		c0.097,0.771,0.561,1.512,0.932,2.228c1.383,2.672-0.338,5.335-3.066,5.992c-2.558,0.616-6.201-1.445-6.823-4.037
		c-0.31-1.291-0.111-2.698-0.189-4.05c-0.129-2.222,0.597-4.449-0.153-6.683c-0.241-0.718-0.038-1.581-0.065-2.377
		c-0.155-4.592-0.336-9.183-0.468-13.775c-0.055-1.917,0.023-3.838-0.017-5.756c-0.04-1.952-0.243-3.904-0.204-5.853
		c0.039-1.964,0.321-3.921,0.433-5.885c0.068-1.198-0.072-2.41,0.036-3.602c0.359-3.984,0.648-7.984,1.246-11.934
		c0.302-1.994,0.976-4.017,1.903-5.809c1.144-2.213,5.511-2.639,6.925-0.765C395.789,36.519,395.95,37.762,396.377,38.951z"/>
	<path d="M348.667,104.852c-3.587-0.524-7.474-1.297-10.904-3.342c-1.132-0.675-2.026-2.045-2.596-3.295
		c-0.913-1.999-1.749-4.087-1.593-6.401c0.029-0.427-0.25-0.895-0.452-1.313c-1.034-2.137,0.131-4.004,0.682-5.954
		c0.107-0.378,0.078-0.798,0.085-1.199c0.006-0.396-0.021-0.793-0.037-1.189c-0.042-1.074-0.115-2.147-0.118-3.221
		c-0.002-0.605-0.09-1.338,0.204-1.792c1.256-1.946,3.058-3.936,5.868-3.011c2.173,0.715,4.337-0.111,6.512-0.314
		c4.176-0.39,8.16-2.018,12.42-1.823c1.523,0.07,3.013,0.961,3.311,2.183c0.229,0.941-0.321,2.862-1.532,3.483
		c-1.787,0.916-3.607,1.845-5.518,2.418c-2.526,0.758-5.159,1.155-7.736,1.75c-1.132,0.261-2.278,0.54-3.341,0.99
		c-0.417,0.177-0.923,0.892-0.863,1.282c0.107,0.696,0.652,1.087,1.559,0.963c3.107-0.424,6.223-0.808,9.347-1.054
		c0.928-0.073,1.95,0.23,2.823,0.607c0.446,0.193,0.88,0.906,0.935,1.425c0.227,2.142-0.598,3.468-2.635,4.273
		c-2.463,0.973-4.918,1.942-7.642,2.071c-1.041,0.049-2.094,0.592-3.069,1.06c-0.813,0.39-0.706,1.587,0.22,1.974
		c1.391,0.581,2.829,1.103,4.295,1.436c1.939,0.44,3.925,0.667,5.89,0.998c1.167,0.196,2.079,1.121,2.257,2.258
		c0.214,1.361-0.367,2.53-1.436,3.24C353.58,104.697,351.275,104.59,348.667,104.852z"/>
	<path d="M321.892,97.98c1.643,0,3.287,0.018,4.93-0.005c1.831-0.026,2.929,0.635,3.341,2.064c0.408,1.417-0.469,3.139-1.886,4.045
		c-3.254,2.079-6.799,2.162-10.448,1.669c-1.783-0.241-3.633-0.272-5.326-0.802c-1.722-0.539-3.344-1.48-4.91-2.414
		c-2.26-1.348-3.108-3.588-3.704-6.056c-0.704-2.917-0.394-5.747-0.012-8.652c0.439-3.34,1.747-6.334,3.461-9.101
		c2.174-3.508,5.375-5.899,9.449-6.904c3.227-0.796,6.641,0.394,8.169,2.984c0.666,1.129,0.897,2.54,1.195,3.852
		c0.155,0.682,0.027,1.429,0.027,2.147c0,2.369-1.83,4.377-4.217,4.582c-0.677,0.058-1.384,0.115-2.039-0.016
		c-1.13-0.225-1.838-0.979-2.11-2.121c-0.329-1.382-1.099-1.599-2.151-0.613c-0.116,0.109-0.258,0.209-0.33,0.344
		c-1.4,2.653-2.663,5.338-2.802,8.427c-0.191,4.262,1.55,5.152,4.936,6.16c1.411,0.42,2.93,0.474,4.4,0.694
		C321.875,98.17,321.884,98.075,321.892,97.98z"/>
</g>
<line fill="none" stroke="#000000" stroke-width="5" stroke-linecap="round" stroke-miterlimit="10" x1="21.337" y1="116.608" x2="481.337" y2="116.608"/>
<text transform="matrix(1 0 0 1 158.2872 146.6608)" font-family="'Rockwell'" font-size="31.8679">Door County</text>
</svg>
